<svg width="27" height="29" viewBox="0 0 27 29" fill="#545454" xmlns="http://www.w3.org/2000/svg">
<path d="M15 11C15.7334 11 16.3334 10.4 16.3334 9.66665V6.99998H19C19.7334 6.99998 20.3334 6.39998 20.3334 5.66665C20.3334 4.93331 19.7334 4.33331 19 4.33331H16.3334V1.66665C16.3334 0.933313 15.7334 0.333313 15 0.333313C14.2667 0.333313 13.6667 0.933313 13.6667 1.66665V4.33331H11C10.2667 4.33331 9.66671 4.93331 9.66671 5.66665C9.66671 6.39998 10.2667 6.99998 11 6.99998H13.6667V9.66665C13.6667 10.4 14.2667 11 15 11ZM8.33337 23C6.86671 23 5.68004 24.2 5.68004 25.6666C5.68004 27.1333 6.86671 28.3333 8.33337 28.3333C9.80004 28.3333 11 27.1333 11 25.6666C11 24.2 9.80004 23 8.33337 23ZM21.6667 23C20.2 23 19.0134 24.2 19.0134 25.6666C19.0134 27.1333 20.2 28.3333 21.6667 28.3333C23.1334 28.3333 24.3334 27.1333 24.3334 25.6666C24.3334 24.2 23.1334 23 21.6667 23ZM9.80004 16.3333H19.7334C20.7334 16.3333 21.6134 15.7866 22.0667 14.96L26.3867 6.77331C26.5496 6.46502 26.585 6.10508 26.4853 5.77095C26.3856 5.43681 26.1586 5.15518 25.8534 4.98665C25.6988 4.90196 25.5288 4.84891 25.3535 4.83058C25.1781 4.81226 25.0009 4.82903 24.8321 4.87991C24.6633 4.9308 24.5064 5.01478 24.3704 5.12696C24.2344 5.23914 24.1221 5.37728 24.04 5.53331L19.7334 13.6666H10.3734L4.69337 1.66665H1.66671C0.933374 1.66665 0.333374 2.26665 0.333374 2.99998C0.333374 3.73331 0.933374 4.33331 1.66671 4.33331H3.00004L7.80004 14.4533L6.00004 17.7066C5.02671 19.4933 6.30671 21.6666 8.33337 21.6666H23C23.7334 21.6666 24.3334 21.0666 24.3334 20.3333C24.3334 19.6 23.7334 19 23 19H8.33337L9.80004 16.3333Z" fill="#545454"/>
</svg>
