<svg width="30" height="26" viewBox="0 0 30 26" fill="none" xmlns="http://www.w3.org/2000/svg">
<path d="M14.9999 5.33333C18.6799 5.33333 21.6666 8.32 21.6666 12C21.6666 12.8667 21.4933 13.68 21.1866 14.44L25.0799 18.3333C27.0933 16.6533 28.6799 14.48 29.6533 12C27.3466 6.14667 21.6533 2 14.9866 2C13.1199 2 11.3333 2.33333 9.67992 2.93333L12.5599 5.81333C13.3199 5.50667 14.1333 5.33333 14.9999 5.33333ZM1.66659 1.69333L4.70659 4.73333L5.31992 5.34667C3.09134 7.07734 1.36901 9.37531 0.333252 12C2.63992 17.8533 8.33325 22 14.9999 22C17.0666 22 19.0399 21.6 20.8399 20.88L21.3999 21.44L25.3066 25.3333L26.9999 23.64L3.35992 0L1.66659 1.69333ZM9.03992 9.06667L11.1066 11.1333C11.0399 11.4133 10.9999 11.7067 10.9999 12C10.9999 14.2133 12.7866 16 14.9999 16C15.2933 16 15.5866 15.96 15.8666 15.8933L17.9333 17.96C17.0399 18.4 16.0533 18.6667 14.9999 18.6667C11.3199 18.6667 8.33325 15.68 8.33325 12C8.33325 10.9467 8.59992 9.96 9.03992 9.06667V9.06667ZM14.7866 8.02667L18.9866 12.2267L19.0133 12.0133C19.0133 9.8 17.2266 8.01333 15.0133 8.01333L14.7866 8.02667Z" fill="#545454"/>
</svg>
