<svg width="27" height="28" viewBox="0 0 27 28" fill="none" xmlns="http://www.w3.org/2000/svg">
<path d="M8.33337 22C6.86671 22 5.68004 23.2 5.68004 24.6667C5.68004 26.1334 6.86671 27.3334 8.33337 27.3334C9.80004 27.3334 11 26.1334 11 24.6667C11 23.2 9.80004 22 8.33337 22ZM0.333374 0.666687V3.33335H3.00004L7.80004 13.4534L6.00004 16.72C5.78671 17.0934 5.66671 17.5334 5.66671 18C5.66671 19.4667 6.86671 20.6667 8.33337 20.6667H24.3334V18H8.89337C8.70671 18 8.56004 17.8534 8.56004 17.6667L8.60004 17.5067L9.80004 15.3334H19.7334C20.7334 15.3334 21.6134 14.7867 22.0667 13.96L26.84 5.30669C26.95 5.1032 27.0054 4.87466 27.0007 4.64339C26.996 4.41212 26.9313 4.18603 26.8131 3.98721C26.6949 3.78838 26.5271 3.62362 26.3262 3.50901C26.1252 3.39441 25.898 3.33389 25.6667 3.33335H5.94671L4.69337 0.666687H0.333374ZM21.6667 22C20.2 22 19.0134 23.2 19.0134 24.6667C19.0134 26.1334 20.2 27.3334 21.6667 27.3334C23.1334 27.3334 24.3334 26.1334 24.3334 24.6667C24.3334 23.2 23.1334 22 21.6667 22Z" fill="#545454"/>
</svg>
