<svg width="20" height="24" viewBox="0 0 20 24" fill="none" xmlns="http://www.w3.org/2000/svg">
<path d="M1.99996 21.3333C1.99996 22.8 3.19996 24 4.66663 24H15.3333C16.8 24 18 22.8 18 21.3333V5.33333H1.99996V21.3333ZM6.22663 12.7867C5.97732 12.5374 5.83727 12.1992 5.83727 11.8467C5.83727 11.4941 5.97732 11.156 6.22663 10.9067C6.47593 10.6574 6.81406 10.5173 7.16663 10.5173C7.51919 10.5173 7.85732 10.6574 8.10663 10.9067L9.99996 12.7867L11.88 10.9067C12.1293 10.6574 12.4674 10.5173 12.82 10.5173C13.1725 10.5173 13.5107 10.6574 13.76 10.9067C14.0093 11.156 14.1493 11.4941 14.1493 11.8467C14.1493 12.1992 14.0093 12.5374 13.76 12.7867L11.88 14.6667L13.76 16.5467C13.8834 16.6701 13.9813 16.8167 14.0481 16.9779C14.1149 17.1392 14.1493 17.3121 14.1493 17.4867C14.1493 17.6612 14.1149 17.8341 14.0481 17.9954C13.9813 18.1567 13.8834 18.3032 13.76 18.4267C13.6365 18.5501 13.49 18.648 13.3287 18.7148C13.1674 18.7816 12.9945 18.816 12.82 18.816C12.6454 18.816 12.4725 18.7816 12.3112 18.7148C12.1499 18.648 12.0034 18.5501 11.88 18.4267L9.99996 16.5467L8.11996 18.4267C7.99652 18.5501 7.84997 18.648 7.68868 18.7148C7.5274 18.7816 7.35453 18.816 7.17996 18.816C7.00539 18.816 6.83252 18.7816 6.67124 18.7148C6.50995 18.648 6.3634 18.5501 6.23996 18.4267C6.11652 18.3032 6.0186 18.1567 5.95179 17.9954C5.88498 17.8341 5.8506 17.6612 5.8506 17.4867C5.8506 17.3121 5.88498 17.1392 5.95179 16.9779C6.0186 16.8167 6.11652 16.6701 6.23996 16.5467L8.11996 14.6667L6.22663 12.7867ZM18 1.33333H14.6666L13.72 0.386667C13.48 0.146667 13.1333 0 12.7866 0H7.21329C6.86663 0 6.51996 0.146667 6.27996 0.386667L5.33329 1.33333H1.99996C1.26663 1.33333 0.666626 1.93333 0.666626 2.66667C0.666626 3.4 1.26663 4 1.99996 4H18C18.7333 4 19.3333 3.4 19.3333 2.66667C19.3333 1.93333 18.7333 1.33333 18 1.33333Z" fill="#545454"/>
</svg>
