<svg width="25" height="25" viewBox="0 0 25 25" fill="none" xmlns="http://www.w3.org/2000/svg">
<path d="M0 20V25H5L19.7467 10.2533L14.7467 5.2533L0 20ZM23.6133 6.38663C23.7369 6.26328 23.835 6.11676 23.9019 5.95546C23.9688 5.79416 24.0033 5.62125 24.0033 5.44663C24.0033 5.27201 23.9688 5.0991 23.9019 4.9378C23.835 4.7765 23.7369 4.62998 23.6133 4.50663L20.4933 1.38663C20.37 1.26302 20.2235 1.16496 20.0622 1.09805C19.9009 1.03114 19.728 0.996704 19.5533 0.996704C19.3787 0.996704 19.2058 1.03114 19.0445 1.09805C18.8832 1.16496 18.7367 1.26302 18.6133 1.38663L16.1733 3.82663L21.1733 8.82663L23.6133 6.38663V6.38663Z" fill="#545454"/>
</svg>
