<svg width="30" height="20" viewBox="0 0 30 20" fill="none" xmlns="http://www.w3.org/2000/svg">
<path d="M14.9999 0C8.33325 0 2.63992 4.14667 0.333252 10C2.63992 15.8533 8.33325 20 14.9999 20C21.6666 20 27.3599 15.8533 29.6666 10C27.3599 4.14667 21.6666 0 14.9999 0ZM14.9999 16.6667C11.3199 16.6667 8.33325 13.68 8.33325 10C8.33325 6.32 11.3199 3.33333 14.9999 3.33333C18.6799 3.33333 21.6666 6.32 21.6666 10C21.6666 13.68 18.6799 16.6667 14.9999 16.6667ZM14.9999 6C12.7866 6 10.9999 7.78667 10.9999 10C10.9999 12.2133 12.7866 14 14.9999 14C17.2133 14 18.9999 12.2133 18.9999 10C18.9999 7.78667 17.2133 6 14.9999 6Z" fill="#545454"/>
</svg>
